# xmcd
#
# Track frame offsets: 
#        150
#        17422
#        35444
#        52498
#        72340
#        92506
#        110703
#        132849
#        151972
#        170747
#        194440
#        216018
#        235869
#        256919
#        274123
#
# Disc length: 3917 seconds
#
# Revision: 0
# Processed by: cddbd v1.5.2PL0 Copyright (c) Steve Scherf et al.
# Submitted via: ExactAudioCopy v1.0b3
#
DISCID=d70f4b0f
DTITLE=Lawrence Fritts - 2000 Blues licks that rock cd3
DYEAR=2012
DGENRE=Blues
TTITLE0=Neanderthal blues in G
TTITLE1=Non-compliant blues in A
TTITLE2=Post modern blues in G
TTITLE3=Respect my cat blues in A
TTITLE4=Side eye blues in E
TTITLE5=Snoring cat blues in D
TTITLE6=Stomp and bawl blues in A
TTITLE7=Sucker punch blues in A
TTITLE8=Too good for me blues in Bb
TTITLE9=Transcendental blues in C
TTITLE10=Usual blues in E
TTITLE11=Walk that poodle blues in F
TTITLE12=We need to talk blues in F
TTITLE13=Where's my pants blues in C
TTITLE14=Whose beer blues in C
EXTD=
EXTT0=
EXTT1=
EXTT2=
EXTT3=
EXTT4=
EXTT5=
EXTT6=
EXTT7=
EXTT8=
EXTT9=
EXTT10=
EXTT11=
EXTT12=
EXTT13=
EXTT14=
PLAYORDER=
